<?xml version="1.0" encoding="UTF-8" standalone="no"?>
<svg width="419px" height="182px" viewBox="0 0 419 182" version="1.1" xmlns="http://www.w3.org/2000/svg" xmlns:xlink="http://www.w3.org/1999/xlink" xmlns:sketch="http://www.bohemiancoding.com/sketch/ns">
    <!-- Generator: Sketch 3.2.1 (9977) - http://www.bohemiancoding.com/sketch -->
    <title>Top Logo</title>
    <desc>Created with Sketch.</desc>
    <defs></defs>
    <g id="Page-1" stroke="none" stroke-width="1" fill="none" fill-rule="evenodd" sketch:type="MSPage">
        <g id="Desktop-HD" sketch:type="MSArtboardGroup" transform="translate(-488.000000, -59.000000)" fill="#2D2928">
            <g id="Header" sketch:type="MSLayerGroup" transform="translate(2.000000, 59.000000)">
                <g id="Top-Logo-+-Top-City" transform="translate(482.000000, 0.000000)" sketch:type="MSShapeGroup">
                    <path d="M406.623,160.574 L406.623,102.572 L392.653,102.572 L392.653,147.24 L386.059,147.24 L385.898,120.915 L381.443,120.995 L381.443,113.73 L378.401,113.73 L378.41,99.787 L378.411,99.787 L378.411,98.669 L379.928,98.669 L379.928,90.475 L378.411,90.475 L378.411,65.741 L381.604,65.741 L381.604,61.143 L379.928,61.143 L379.928,50.615 L378.377,50.615 L374.761,0 L373.763,0.002 L370.467,50.615 L368.615,50.615 L368.615,61.143 L367.242,61.143 L367.242,65.741 L370.435,65.741 L370.435,90.475 L368.615,90.475 L368.615,98.669 L370.435,98.669 L370.435,98.787 L370.425,113.73 L367.08,113.73 L367.08,121.253 L355.345,121.464 L355.345,85.257 L332.592,85.257 L332.592,130.15 L323.842,130.15 L323.842,102.572 L308.84,102.572 L308.84,38.573 L283.838,38.573 L283.838,95.072 L266.587,95.072 L266.587,144.61 L252.585,144.61 L252.585,120.494 L240.581,120.494 L240.581,85.257 L224.58,85.257 L224.58,115.766 L220.683,107.521 L216.58,120.544 L216.58,60.23 L197.578,60.23 L197.578,138.574 L189.328,138.574 L189.328,157.24 L169.371,157.24 L168.291,122.715 L150.384,122.715 L150.384,139.904 L141.088,139.904 L141.088,73.408 L126.373,72.24 L126.373,33.683 L105.507,33.683 L105.507,55.861 L98.886,55.861 L98.886,94.381 L70.193,94.381 L70.193,118.973 L56.951,121.31 L56.951,133.482 L52.802,133.482 L52.802,104.885 L38.56,104.885 L38.56,122.394 L35.881,122.394 L35.881,104.885 L20.166,104.885 L20.166,162.081 L4,162.081 L4,181.757 L422.102,181.757 L422.102,160.574 L406.623,160.574 L406.623,160.574 Z M216.58,146.006 L216.626,147.501 L216.58,147.501 L216.58,146.006 L216.58,146.006 Z" id="Top-Logo"></path>
                </g>
            </g>
        </g>
    </g>
</svg>